<svg xmlns="http://www.w3.org/2000/svg" viewBox="0 0 1024 1024" fill="currentColor">
  <path d="M897.697,214.975c-4.569,3.481-4.787,11.532-1.958,65.492c1.741,33.725-1.305,52.002-12.837,75.718c-14.578,30.244-48.956,56.571-77.676,59.617c-7.398,0.653-18.494-0.218-30.244-2.829c-21.976-4.569-58.747-5.004-77.241-1.088c-55.266,11.749-98.347,34.595-165.361,88.338c-16.754,13.272-36.771,28.938-44.604,34.595c-28.068,20.67-50.261,28.503-71.149,25.022c-5.657-0.87-20.67-1.741-33.29-1.741c-25.675-0.218-23.499,0.653-51.784-21.105c-9.574-7.398-22.193-15.013-28.068-17.189c-7.18-2.611-14.36-8.05-23.499-17.406c-15.013-15.448-33.943-28.721-43.951-30.679c-10.226-1.958-12.402,3.699-10.444,27.415l1.523,19.365l-9.356,4.787c-5.222,2.611-12.185,6.527-15.448,8.921c-5.222,3.481-7.18,3.699-15.013,1.741c-15.013-4.134-19.147,0.87-11.097,14.143c3.916,6.31 3.916,6.745 0.218,15.231c-2.176,4.787-4.134,13.49-4.134,19.365c0,7.398-2.176,15.448-6.745,25.457l-6.745,14.578l5.875,10.009c7.398,12.62 18.494,22.193 28.721,25.022c4.569,1.305 16.536,1.958 26.762,1.741c22.628-0.435 28.503,2.393 35.901,18.277c5.875,12.62 4.352,21.105-5.222,32.42c-5.44,6.092-90.296,52.655-106.615,58.312c-4.134,1.523-16.101,2.611-26.762,2.611c-21.541,0-32.42,3.916-40.905,14.578c-6.092,7.833-5.222,18.059 2.176,21.758c7.833,3.916 93.125,3.916 107.703-0.218c44.169-12.185 46.78-13.055 47.868-16.754c2.176-6.31 17.842-18.93 26.545-21.323c4.569-1.088 16.101-2.611 25.457-3.264c19.147-1.305 25.675-3.916 70.714-28.068c14.796-8.05 27.415-14.143 27.85-13.708c1.088,1.088-52.219,36.554-64.622,42.863c-7.398,3.699-15.231,5.222-31.767,6.31c-17.189,1.305-23.934,2.611-29.809,6.31c-9.574,5.875-17.624,18.059-15.666,23.934c2.611,8.268 11.314,9.356 64.622,8.486l50.696-0.653l26.11-12.185c14.36-6.745 41.34-19.147 59.835-27.198c18.494-8.268 37.641-17.842 42.428-21.541c4.787-3.699 15.448-8.486 23.934-10.879c37.206-10.009 70.061-25.892 107.703-52.437c13.925-9.791 27.198-18.277 29.591-19.147c4.787-1.523 13.49,6.745 27.85,25.675c15.013,20.235 14.796,33.29-0.653,57.441c-10.444,15.883-15.013,19.147-30.679,20.888c-10.444,1.088-13.055,2.393-20.017,9.791c-8.921,9.356-10.444,17.189-5.004,22.846c7.615,7.615 55.483,7.615 68.756,0c4.134-2.393 21.323-21.541 39.6-44.169c35.248-43.951 35.248-43.951 27.633-63.534c-7.615-18.93-5.44-20.67 10.444-8.268c19.8,15.666 22.628,21.105 21.541,40.47c-0.653,11.749-2.393,18.93-7.18,28.286c-6.092,12.402-6.527,12.62-16.971,13.925c-8.703,0.87-11.967,2.611-18.059,9.356c-6.092,6.527-7.398,9.356-6.745,16.101c0.435,5.875 1.958,8.703 6.092,10.661c6.745,3.481 42.428,3.699 52.437,0.435c9.791-3.264 20.453-13.49 25.457-24.587c7.398-15.448 33.072-92.689 33.072-98.999c0-3.481-3.699-11.097-8.703-18.277c-5.004-6.745-10.226-15.666-11.967-20.017c-4.569-10.661-4.134-30.244 1.305-47.868c14.578-49.391 15.448-54.178 15.448-77.241c0.218-19.365-0.653-25.239-5.657-38.294c-3.046-8.486-5.657-16.101-5.657-16.971c0-0.653 9.791-7.615 21.758-15.448c12.185-7.833 26.98-18.712 33.072-24.369c41.558-39.165 64.186-106.832 53.96-161.88c-3.046-16.101-13.708-37.206-23.064-45.257c-8.486-7.615-20.67-9.138-28.286-3.699Z"/>
</svg>
