<svg xmlns="http://www.w3.org/2000/svg" viewBox="0 0 1024 1024" fill="currentColor">
  <path d="M706.707,301.989c-7.937,7.425-20.994,22.274-29.187,33.027l-14.849,19.458l-30.211,0.256c-16.642,0-36.356,1.28-43.78,2.56l-13.313,2.304l-21.25-18.69c-23.554-20.738-42.756-33.283-54.789-35.844c-11.009-2.048-15.105,4.608-18.69,32.259c-3.072,21.506-2.56,32.515 3.072,68.615c2.56,16.386 2.048,21.25-2.56,39.684c-7.937,30.979-8.705,38.148-5.377,52.741c4.352,20.482 1.024,21.506-5.121,1.536c-5.377-16.642-5.633-20.994-3.84-57.35l1.792-39.428l-31.747,1.536c-130.061,5.889-227.607,86.281-227.607,187.411c0,33.539 9.473,59.142 30.211,81.16c26.371,28.163 55.558,37.636 147.727,48.133c109.323,12.289 244.76,17.666 271.899,10.753c25.09-6.657 33.283-22.53 19.714-38.66c-9.217-11.009-19.714-13.057-66.567-13.057c-41.476,0-60.166-2.048-75.271-8.193c-7.169-3.072-4.352-3.328 26.115-3.584c18.69,0 48.389-0.512 66.055-1.024c33.283-0.768 45.316,1.792 56.838,12.033c4.096,3.584 5.121,3.584 13.313-2.816c4.864-3.584 12.033-7.937 16.13-9.217c6.145-2.304 5.633-1.28-4.352,7.169c-11.521,9.985-11.521,10.241-11.009,25.09c0.512,10.753 2.048,16.13 5.121,18.434c8.449,6.145 24.834,8.705 45.573,7.169c26.115-1.792 45.06-10.753 56.326-26.883c7.169-9.985 7.681-12.545 7.681-31.747c-0.256-27.139-5.889-38.148-36.356-71.943c-12.289-13.825-23.554-26.627-24.834-28.163c-1.28-2.048 2.304-9.729 10.753-22.018c30.723-45.573 33.539-78.344 11.009-126.733c-7.425-15.362-10.497-26.371-12.801-44.804c-3.328-26.627-16.13-68.359-23.81-78.088c-7.681-9.985-15.874-8.193-32.003,6.913Z"/>
</svg>
