<?xml version="1.0" encoding="UTF-8" standalone="no"?><!DOCTYPE svg PUBLIC "-//W3C//DTD SVG 1.1//EN" "http://www.w3.org/Graphics/SVG/1.1/DTD/svg11.dtd"><svg width="100%" height="100%" viewBox="0 0 1024 1024" version="1.1" xmlns="http://www.w3.org/2000/svg" xmlns:xlink="http://www.w3.org/1999/xlink" xml:space="preserve" xmlns:serif="http://www.serif.com/" style="fill-rule:evenodd;clip-rule:evenodd;stroke-linejoin:round;stroke-miterlimit:2;"><g><path d="M547.065,196.824c-2.933,5.867 -9.429,37.714 -9.429,47.143c0,3.352 -3.352,5.867 -14.248,11.105c-7.752,3.562 -19.695,10.057 -26.4,14.248l-12.362,7.333l-18.019,-6.076c-9.848,-3.352 -23.886,-6.705 -31.009,-7.543c-11.314,-1.257 -13.409,-0.838 -17.181,2.933c-3.352,3.352 -4.19,5.867 -3.143,10.267c2.095,8.381 14.248,32.476 23.886,46.305c5.867,8.8 8.8,15.924 10.267,24.724c1.048,6.914 3.352,16.133 5.238,20.533c1.886,4.19 3.352,12.362 3.352,17.6c0,9.638 0.419,10.267 12.152,19.695c15.505,12.781 28.495,17.181 45.047,15.295c6.914,-0.629 15.295,-2.514 18.438,-4.19c9.009,-4.4 7.333,-0.419 -2.514,6.495c-5.238,3.771 -10.686,10.267 -14.457,17.809c-8.171,15.505 -24.095,32.476 -59.505,63.066c-61.39,53.219 -94.705,102.876 -109.371,162.8c-2.514,10.895 -5.238,25.143 -6.076,31.428l-1.257,11.524l-10.267,2.514c-14.876,3.562 -31.638,12.152 -42.533,21.581c-12.152,10.686 -17.181,23.257 -15.505,38.133c4.19,34.781 45.676,54.057 131.581,60.552c51.962,3.981 112.933,-1.467 143.314,-12.99c14.667,-5.448 26.19,-16.762 26.19,-25.562c0,-9.638 -6.705,-19.486 -17.181,-24.933c-7.962,-4.19 -11.943,-4.819 -35.2,-4.819c-17.181,0 -36.457,1.676 -56.152,4.819c-37.505,5.867 -75.009,6.495 -95.543,1.676c-23.886,-5.657 -34.152,-14.876 -25.352,-22.209c2.514,-2.095 3.143,-2.095 3.143,0.419c0,3.981 6.914,7.124 22.838,10.267c18.438,3.562 59.924,1.257 99.733,-5.448c26.4,-4.4 38.133,-5.448 55.524,-4.61c12.152,0.419 23.676,1.467 25.562,2.305c2.933,1.257 4.19,-0.419 6.705,-9.638c5.238,-19.067 5.867,-31.009 2.514,-47.352c-6.286,-29.752 -18.648,-50.705 -37.505,-63.276c-6.705,-4.61 -11.314,-8.381 -10.057,-8.381c6.495,0 23.467,10.476 33.943,20.952c20.324,20.114 29.962,45.676 36.248,94.285c1.467,13.2 2.933,25.562 2.933,27.238c0,1.676 1.676,7.333 3.562,12.571c2.933,7.962 3.143,11.314 1.048,21.581c-2.724,13.829 -0.838,17.6 11.105,23.676c7.962,4.19 35.828,5.867 50.705,3.143c16.343,-3.143 22.629,-9.009 22.838,-22c0.21,-10.476 -4.4,-18.438 -15.086,-25.352c-3.562,-2.305 -6.914,-6.076 -7.543,-8.381c-3.981,-12.781 -6.076,-68.095 -3.771,-96.59c2.933,-34.362 6.286,-47.981 6.286,-24.933c0,7.962 2.933,38.762 6.705,68.095c6.076,46.933 7.333,54.057 11.524,58.667c7.124,7.752 9.848,14.248 11.314,25.981l1.257,10.686l13.619,1.676c14.457,1.676 34.781,0.419 43.162,-2.933c6.914,-2.514 11.733,-14.038 9.429,-22.209c-3.143,-11.105 -6.076,-14.667 -15.924,-19.276c-5.867,-2.724 -10.476,-6.705 -12.152,-10.267c-1.467,-3.771 -2.305,-19.695 -2.514,-46.514c0,-33.943 1.048,-48.4 6.286,-85.905c15.086,-110.419 3.981,-178.723 -43.371,-265.047c-8.171,-15.086 -18.438,-36.038 -22.629,-46.724c-9.848,-24.095 -19.067,-39.809 -31.848,-53.009c-5.448,-5.657 -12.362,-15.086 -15.505,-20.952c-3.143,-5.867 -11.524,-16.762 -18.438,-24.305c-22.838,-24.933 -41.695,-32.686 -48.4,-19.695Z" style="fill-rule:nonzero;"/></g></svg>