<svg xmlns="http://www.w3.org/2000/svg" viewBox="0 0 1024 1024" fill="currentColor">
  <path d="M635.162,179.558c-6.644,8.638-13.289,31.893-15.947,56.034c-1.107,11.738-3.101,28.792-4.43,37.873c-1.107,9.081-1.772,31.007-1.55,48.726c0.443,35.215-1.329,43.853-13.289,59.8c-13.067,17.718-23.92,24.806-74.417,48.504c-59.578,28.128-101.659,61.35-136.432,107.639c-16.39,21.927-37.209,61.793-47.175,91.028c-7.973,22.812-17.054,60.686-17.054,70.652c0,3.101-0.664,5.537-1.55,5.537c-11.517,0-48.504,7.973-62.236,13.289c-39.202,15.061-53.82,42.746-38.98,72.867c17.94,36.101 82.391,58.249 169.211,58.692c49.612,0 70.652-5.537 78.847-21.041c6.201-11.96-1.993-27.906-17.275-34.108c-7.53-3.101-19.712-4.43-57.142-5.758c-49.612-1.772-61.793-3.322-81.505-11.295c-12.846-5.094-17.94-11.074-13.51-16.39c2.215-2.658 2.879-2.658 5.094,0c1.329,1.772 9.967,5.316 19.047,7.973c14.396,4.208 24.141,5.094 70.874,6.423c49.833,1.329 55.149,1.772 65.115,6.423c20.598,9.302 29.457,19.047 35.437,38.538c1.107,3.544 5.316,3.987 48.947,3.987l48.061,0l6.644-6.644c5.758-5.98 6.644-7.973 5.316-15.061c-2.658-16.39-14.175-26.135-34.994-29.678l-14.618-2.436l6.201-8.638c3.544-4.873 8.638-15.282 11.295-23.255c9.302-27.906 2.879-69.766-13.51-90.364c-3.765-4.651-6.644-8.859-6.644-9.302c0-2.436 13.953,9.302 21.927,18.383c17.275,19.712 24.141,40.974 29.235,90.364c1.772,16.39 3.544,24.363 7.752,31.229c2.879,5.094 5.316,11.074 5.316,13.51c0,2.215 1.993,8.416 4.43,13.732c6.423,14.396 16.39,18.161 49.39,18.161c28.349,0 33.001-1.772 36.101-14.396c3.101-12.624-7.752-28.571-21.262-31.45c-4.651-0.886-7.752-3.322-9.524-7.087c-3.322-7.53-3.322-93.908 0-103.21c2.436-6.201 2.436-5.758 2.658,5.758c0.221,14.396 3.544,49.169 7.309,77.961c2.215,17.497 3.101,19.712 8.195,22.591c12.181,6.201 22.369,22.369 22.369,35.437l0,7.752l15.725,0c18.161,0 22.591-1.772 26.356-10.853c5.316-12.846-1.772-27.242-16.832-33.886c-5.98-2.436-10.853-6.423-11.96-9.524c-4.208-11.295-7.087-54.041-5.98-87.485c1.772-50.94 7.087-72.202 29.235-116.277c15.947-31.893 19.49-43.853 23.255-76.411c3.101-25.692 0.886-50.94-7.973-94.129c-2.879-14.618-5.316-30.121-5.316-34.329c0.221-9.967 7.087-25.249 17.275-37.652c13.953-16.832 20.376-26.356 23.92-34.329c3.987-9.745 3.987-27.685 0-36.987c-1.772-3.987-3.765-10.188-4.651-13.51c-1.55-7.087-8.195-10.41-21.484-10.41c-5.98,0-12.846-2.215-20.598-6.644c-6.423-3.765-16.168-7.309-21.705-7.973l-9.967-1.329l-3.765-13.289c-1.993-7.087-5.094-13.732-6.866-14.396c-5.537-1.993-13.289,5.316-18.826,17.497c-4.208,9.745-6.644,12.624-12.403,14.396c-6.866,1.993-7.973,1.772-13.732-5.094c-3.544-3.765-9.524-11.738-13.289-17.275c-5.98-8.638-12.624-14.618-16.611-14.618c-0.443,0-3.101,2.658-5.537,5.758Z"/>
</svg>
