<svg xmlns="http://www.w3.org/2000/svg" viewBox="0 0 1024 1024" fill="currentColor">
  <path d="M705.051,396.225c10.556-4.502 27.943-1.552 40.673,7.296c39.431,27.012 49.987,84.761 21.268,116.43l-5.278,5.744l4.657,3.26c14.593,10.401 38.655,17.697 66.443,20.181c33.221,2.95 50.143,13.195 50.143,30.272c0,18.163-19.871,23.286-56.042,14.437c-9.004-2.173-20.181-4.502-24.838-5.123c-7.296-0.931-9.159-2.018-14.437-7.917c-9.78-11.022-20.336-14.903-45.951-16.766c-34.619-2.484-61.475-10.867-79.794-24.838c-4.191-3.105-7.762-5.278-8.228-4.812c-0.466,0.466 4.191,6.054 10.556,12.264c9.314,9.314 13.661,12.264 23.131,16.145c14.903,6.21 31.048,9.47 55.421,11.333c27.788,2.173 38.5,7.917 40.362,21.578c0.776,5.589 0.31,6.831-4.036,10.867c-10.091,9.47-27.943,9.935-59.147,1.863c-19.405-5.123-36.171-8.072-72.187-12.73c-39.586-5.123-60.233-6.365-112.083-6.52c-27.633-0.155-50.143-0.621-50.143-0.931c0-0.466 1.087-1.863 2.484-3.415c1.397-1.552 3.415-5.433 4.657-8.693c5.278-14.903 0.621-31.359-12.574-43.778c-9.78-9.314-12.574-10.401-5.433-2.173c7.607,8.538 10.867,16.921 10.867,28.098c0,12.109-2.484,18.318-10.246,24.994c-10.401,9.159-19.095,11.954-59.612,18.629c-45.02,7.607-62.096,11.798-83.985,20.647c-13.506,5.433-18.318,6.52-29.34,7.141c-11.488,0.466-14.127,0-20.181-3.105c-13.816-7.141-15.835-19.871-4.968-30.893c6.054-6.054 15.835-9.159 28.719-9.159c3.881,0 11.488-2.173 18.939-5.278c57.128-24.217 61.165-26.546 29.34-17.387c-10.246,3.105-19.716,5.899-20.957,6.365c-1.863,0.621-2.173-1.708-1.708-15.058c0.31-11.333 0-15.369-1.087-13.661c-0.931,1.242-1.708,3.726-1.708,5.433c0,4.968-8.538,21.268-13.351,25.925c-5.589,5.123-11.488,7.452-19.095,7.452c-10.867,0-21.113,4.191-27.633,11.333c-3.415,3.726-6.52,7.452-6.831,8.383c-0.466,1.087-18.784,1.863-56.818,2.173l-56.042,0.621l-4.036-3.726c-4.657-4.347-4.968-6.365-1.863-12.419c3.881-7.452 9.47-9.935 26.546-11.333c12.264-0.931 17.387-2.173 24.062-5.589c11.333-5.589 11.954-9.47 2.794-14.593c-8.849-4.812-9.159-9.625-0.931-10.246c4.968-0.466 6.054-1.242 6.831-4.657c2.018-8.849 6.054-17.853 11.488-25.77c5.278-7.607 5.589-8.538 3.726-11.954c-3.415-5.899-9.935-27.478-9.935-32.445c0-6.054 4.347-8.228 13.661-6.831c10.556,1.552 22.51,5.899 34.308,12.574c9.159,5.123 11.488,5.744 21.889,5.899c7.762,0.155 15.214,1.552 22.51,4.036c8.849,2.95 13.972,3.726 27.167,3.571c14.748,0 18.008-0.621 32.911-5.744c13.04-4.502 18.939-5.744 27.478-5.744c7.917,0 12.264-0.776 15.99-2.95c6.365-3.726 39.121-12.73 65.667-17.853c60.544-11.954 118.604-13.506 150.738-3.881c5.899,1.863 17.387,4.191 25.459,5.278c20.026,2.794 27.943,4.968 43.933,11.798c17.076,7.296 28.875,14.282 38.655,22.976c7.296,6.52 7.607,6.675 10.556,4.036c6.054-5.433 9.935-16.455 10.091-27.943c0-19.871-11.954-36.481-29.806-41.139c-12.264-3.105-15.835-4.812-19.871-9.625c-6.675-7.917-4.036-17.853 6.054-22.355Z"/>
</svg>
