<?xml version="1.0" encoding="UTF-8" standalone="no"?><!DOCTYPE svg PUBLIC "-//W3C//DTD SVG 1.1//EN" "http://www.w3.org/Graphics/SVG/1.1/DTD/svg11.dtd"><svg width="100%" height="100%" viewBox="0 0 1024 1024" version="1.1" xmlns="http://www.w3.org/2000/svg" xmlns:xlink="http://www.w3.org/1999/xlink" xml:space="preserve" xmlns:serif="http://www.serif.com/" style="fill-rule:evenodd;clip-rule:evenodd;stroke-linejoin:round;stroke-miterlimit:2;"><g><path d="M196.435,215.034c-36.327,18.051 -57.763,56.635 -57.988,103.793c-0.451,66.111 39.261,126.131 109.659,165.166l17.148,9.702l-4.287,7.22c-8.123,14.215 -11.733,32.943 -13.313,70.398c-1.354,29.333 -2.482,38.358 -6.318,46.707c-6.995,15.569 -19.405,27.979 -35.876,35.876c-7.897,3.61 -15.795,9.025 -17.825,12.184c-4.738,7.22 -21.435,97.926 -21.435,116.654c0,25.271 10.379,32.492 44.902,31.138c16.471,-0.903 19.179,-1.579 23.015,-6.318c6.769,-8.123 5.415,-17.6 -3.385,-26.399c-4.287,-4.287 -9.477,-7.672 -11.507,-7.672c-3.385,0 -3.836,-1.354 -2.482,-9.025c2.482,-15.795 13.087,-38.809 21.661,-47.158c5.867,-5.867 15.343,-10.831 33.845,-18.051c29.558,-11.282 53.25,-22.789 66.788,-32.04l9.251,-6.318l-3.836,14.215c-2.031,7.897 -6.543,18.953 -9.702,24.594c-10.379,17.6 -9.025,22.338 14.666,51.671c33.394,41.291 46.932,55.506 56.409,59.342c11.282,4.513 46.481,4.513 57.086,0.226c7.22,-3.159 7.897,-4.287 7.897,-12.41c0,-6.769 -1.579,-10.379 -6.769,-15.569c-6.769,-6.769 -18.953,-10.605 -25.723,-8.123c-8.8,3.385 -37.456,-35.425 -37.456,-50.542c0,-6.769 7.897,-18.502 28.881,-43.322c6.543,-7.672 14.441,-19.179 17.6,-25.497c3.385,-6.543 6.318,-11.959 6.543,-12.41c0.451,-0.451 15.795,2.031 34.071,5.19c18.502,3.385 45.804,6.543 60.922,7.22l27.302,1.354l0.226,53.25c0.677,75.588 4.061,91.834 21.661,100.408c10.154,4.964 43.322,6.092 53.927,1.805c8.574,-3.61 11.507,-12.184 7.446,-21.887c-3.61,-8.349 -9.928,-12.636 -21.661,-14.441c-7.897,-1.354 -7.897,-1.579 -8.574,-14.441c-0.903,-16.697 10.605,-65.209 20.082,-84.614c8.123,-16.697 6.995,-17.148 28.656,10.831c8.349,10.605 29.333,37.004 46.707,58.665c17.6,21.661 34.748,43.773 38.132,49.189c8.8,13.989 19.63,18.502 44.902,18.502c22.564,0 31.815,-3.385 34.071,-12.41c1.805,-6.995 -3.61,-18.051 -10.605,-21.887c-2.708,-1.579 -9.928,-3.385 -16.246,-4.061c-10.154,-1.128 -11.959,-2.031 -19.405,-12.184c-9.025,-11.733 -39.486,-75.588 -48.737,-101.762c-4.287,-12.184 -5.641,-20.533 -5.867,-36.327c-0.226,-19.856 0,-20.984 9.251,-37.681c12.636,-22.789 16.923,-34.071 27.528,-72.655c9.702,-35.65 18.277,-55.055 29.784,-67.014c5.867,-6.318 12.41,-9.477 30.912,-15.343c25.497,-8.123 34.522,-14.892 43.096,-31.589c6.318,-12.41 5.641,-16.923 -4.287,-27.753c-5.641,-6.092 -9.477,-12.636 -10.379,-18.502c-2.482,-13.087 -6.543,-19.856 -17.825,-29.784c-9.702,-8.574 -9.928,-9.025 -8.8,-19.405c1.128,-9.928 0.903,-10.605 -3.836,-10.605c-2.933,0 -8.8,2.708 -12.861,5.867c-6.769,4.964 -9.025,5.641 -14.892,3.836c-7.22,-2.031 -7.22,-2.031 -8.574,-20.984c-1.579,-20.533 -4.287,-25.046 -14.441,-23.015c-7.22,1.354 -34.974,30.687 -44.902,47.609c-4.061,6.995 -11.056,16.471 -15.569,20.984c-4.287,4.738 -13.989,20.533 -21.661,35.199c-17.825,35.199 -31.138,47.835 -63.629,60.019c-27.302,10.154 -41.517,11.056 -115.751,6.769c-75.362,-4.287 -121.167,-2.708 -170.581,5.867c-14.215,2.482 -33.168,4.513 -41.968,4.513c-55.281,0 -112.818,-51.671 -121.167,-108.531c-4.287,-31.138 6.092,-59.568 27.979,-76.039c21.661,-16.246 24.594,-19.405 26.174,-27.979c0.903,-6.769 0.226,-9.251 -4.513,-13.989c-8.123,-8.123 -27.528,-8.349 -43.548,-0.226Z" style="fill-rule:nonzero;"/></g></svg>