<svg xmlns="http://www.w3.org/2000/svg" viewBox="0 0 1024 1024" fill="currentColor">
  <path d="M583.263,304.541c-8.034,4.93-11.686,10.773-11.686,18.99c0,11.321 6.208,19.721 24.103,32.868c13.877,10.225 15.886,29.763 5.295,51.493c-6.574,13.147-12.782,17.895-31.224,23.738c-14.79,4.748-23.738,9.678-31.589,16.982c-5.843,5.661-6.756,7.487-5.843,12.234c0.73,3.835-0.548,2.009-4.382-5.478c-17.712-35.424-57.153-50.762-96.412-37.25l-9.678,3.287l0-5.843c0.183-9.86 6.026-17.895 19.355-26.842c14.243-9.312 20.816-17.895 20.816-26.659c0-15.156-8.582-21.912-25.198-20.268c-13.33,1.461-27.937,9.13-41.632,21.912c-22.642,20.999-30.129,38.893-30.311,72.491c0,11.504 0.548,26.294 1.278,32.868l1.278,11.869l21.181,0.183c24.833,0.183 38.893,3.287 58.614,12.964c23.007,11.504 39.806,29.763 47.658,52.588c5.478,16.069 4.382,19.355-2.191,6.208c-7.304-14.79-27.39-35.241-43.458-44.189c-6.574-3.469-18.077-8.217-25.564-10.408c-23.738-6.756-62.083-6.939-89.108-0.548c-4.2,0.913-4.017,0.365 3.104-13.695c10.591-20.999 15.156-39.076 15.156-59.527c0-25.016-5.113-40.172-17.164-51.675c-7.487-7.121-13.877-9.678-24.833-9.678c-23.19,0-34.876,23.007-28.668,56.24c5.113,26.842 1.278,40.354-17.529,61.718c-18.808,21.181-19.173,36.885-1.643,58.614c6.574,8.034 8.765,12.599 9.678,19.355c4.565,33.781 27.572,66.466 62.083,88.925l16.069,10.591l-7.121,2.739c-21.912,8.765-61.353,10.956-85.273,4.93c-32.502-8.217-47.11-25.016-43.641-50.032c0.73-6.208 1.461-15.521 1.461-20.816c0.183-8.582-0.548-10.408-4.93-14.243c-14.79-12.599-40.354,4.017-47.11,30.859c-1.278,5.295-1.826,15.156-1.278,24.651c0.73,13.33 2.009,17.895 6.939,27.755c12.599,25.016 39.989,44.371 74.865,52.953c24.468,6.026 62.814,6.939 90.021,2.009c27.572-4.93 50.945-12.599 71.213-23.007l16.069-8.217l24.103,6.391c121.062,31.407 217.474,19.903 304.208-36.337c26.294-16.982 23.19-16.251 38.711-10.773c26.842,9.678 69.205,7.121 72.126-4.017c1.278-5.295-8.582-23.92-23.007-43.276l-9.13-11.869l0.913-18.442c0.73-17.347 1.096-18.99 7.121-28.12c3.469-5.295 8.582-14.973 11.321-21.364l5.113-11.686l-4.2-3.287c-3.469-2.922-7.487-3.469-22.825-3.469l-18.625,0l-7.121-7.487c-8.765-9.13-23.007-18.442-32.685-21.729c-4.017-1.278-14.06-2.191-22.46-2.009c-12.964,0.183-16.799-0.548-24.286-4.382c-4.93-2.556-10.591-4.565-12.599-4.565c-7.852,0-32.502,32.685-38.893,51.31c-3.469,10.225-3.652,10.408-17.529,16.799c-7.669,3.469-17.712,6.939-22.277,7.487c-9.312,1.278-35.972-2.739-46.38-7.121c-8.765-3.652-7.669-5.113 1.643-2.556c4.017,1.096 15.703,1.643 26.477,1.278c17.895-0.73 20.086-1.278 32.502-7.487c8.765-4.565 13.147-7.852 13.147-10.043c0-1.826 1.643-6.391 3.469-10.043l3.469-6.939l-4.748-10.408c-5.661-12.234-7.304-29.946-4.017-44.371c6.574-29.946 7.487-36.702 7.487-51.858c-0.183-28.485-8.217-48.936-26.111-66.648c-17.347-16.982-41.267-24.468-53.684-16.616Z"/>
</svg>
