<?xml version="1.0" encoding="UTF-8" standalone="no"?><!DOCTYPE svg PUBLIC "-//W3C//DTD SVG 1.1//EN" "http://www.w3.org/Graphics/SVG/1.1/DTD/svg11.dtd"><svg width="100%" height="100%" viewBox="0 0 1024 1024" version="1.1" xmlns="http://www.w3.org/2000/svg" xmlns:xlink="http://www.w3.org/1999/xlink" xml:space="preserve" xmlns:serif="http://www.serif.com/" style="fill-rule:evenodd;clip-rule:evenodd;stroke-linejoin:round;stroke-miterlimit:2;"><g><path d="M723.6,187.385c-21.969,4.932 -49.318,16.813 -68.373,29.591c-5.604,3.811 -16.589,9.191 -24.435,11.657c-12.778,4.259 -32.281,16.141 -66.355,40.351c-6.053,4.259 -26.901,15.916 -45.956,25.78c-108.276,55.819 -171.269,114.553 -213.862,199.739c-27.798,55.819 -43.938,127.331 -40.8,182.702l1.121,23.987l-14.795,7.398c-55.147,27.573 -60.079,77.788 -10.312,104.465c34.074,18.158 83.169,26.004 153.111,24.659c52.008,-1.121 71.287,-4.035 93.705,-14.571c25.332,-11.881 24.211,-38.11 -1.793,-48.646c-15.468,-6.053 -30.488,-6.501 -68.597,-1.569c-59.854,7.846 -105.138,5.604 -128.452,-6.277c-10.536,-5.604 -15.244,-12.33 -11.433,-17.037c2.018,-2.466 3.138,-2.466 6.725,1.121c10.312,10.312 58.958,16.365 94.153,11.657c72.184,-9.864 78.013,-10.312 92.808,-7.846c25.107,4.259 43.266,16.365 48.87,32.505c2.69,7.398 4.035,7.622 10.76,2.242c7.174,-5.829 7.622,-22.193 0.897,-31.16c-6.501,-8.743 -17.71,-15.916 -27.573,-17.71c-4.483,-0.673 -9.191,-1.569 -10.536,-2.018c-1.569,-0.448 -0.224,-5.604 3.587,-13.899c30.263,-64.114 7.846,-139.212 -48.422,-160.957l-8.743,-3.363l10.088,1.121c39.455,4.932 72.408,45.059 77.34,93.705c0.897,7.622 2.914,21.072 4.483,29.591c1.793,8.743 4.035,26.004 5.38,38.334c1.345,16.141 3.363,24.659 6.725,30.263c3.363,5.38 4.708,11.433 4.708,20.176c0,15.468 6.277,26.004 17.934,30.263c9.639,3.363 49.542,4.035 60.975,0.897c22.193,-6.277 19.727,-35.644 -4.035,-48.646l-9.191,-5.156l-3.587,-25.107c-2.018,-13.899 -4.259,-34.971 -5.156,-46.628c-1.345,-21.969 2.018,-67.701 5.829,-76.667c1.569,-3.811 1.793,-1.793 0.897,7.174c-0.673,6.725 -0.224,22.642 1.345,35.195c4.483,41.248 15.02,104.689 17.486,105.586c10.985,3.587 22.642,22.193 22.866,35.644c0,7.398 0,7.398 11.209,7.398c14.347,0 26.004,-4.708 28.246,-11.657c5.156,-16.365 -2.466,-30.936 -20.4,-39.006l-11.657,-5.38l-4.708,-23.09c-5.156,-24.435 -8.294,-51.784 -10.76,-88.1l-1.345,-22.642l17.486,-19.951c32.281,-36.316 43.49,-47.301 54.698,-53.353c10.536,-5.604 12.33,-6.053 29.815,-4.483c22.417,1.793 32.505,-0.897 40.8,-10.536c4.035,-4.932 5.604,-9.415 5.604,-16.141c0,-26.004 -31.384,-44.386 -70.615,-41.248c-24.435,1.793 -59.182,17.037 -76.667,33.626c-7.846,7.398 -11.657,7.174 -7.622,-0.448c1.345,-2.466 3.587,-12.105 4.932,-21.745c2.914,-20.624 0.224,-39.679 -8.07,-58.509c-3.138,-6.725 -5.604,-13.002 -5.604,-13.45c0,-0.673 4.483,2.914 9.864,7.622c5.38,4.708 16.365,11.881 24.435,15.692c19.727,9.864 39.679,10.312 56.492,1.121c9.639,-5.156 11.433,-7.398 13.45,-15.692c2.018,-7.622 4.708,-11.209 13.45,-17.934c14.123,-10.536 20.4,-19.951 23.762,-35.195c2.466,-10.985 4.708,-14.347 23.09,-32.954c11.433,-11.433 21.969,-24.211 23.762,-28.47c2.914,-7.174 2.69,-7.846 -1.793,-11.657c-6.277,-4.932 -33.178,-9.415 -49.542,-8.294l-12.554,0.897l-7.622,-10.312l-7.622,-10.088l4.035,-19.055c5.604,-25.78 6.725,-39.679 3.363,-43.714c-2.69,-3.138 -11.657,-4.035 -21.297,-1.793Z" style="fill-rule:nonzero;"/></g></svg>