<?xml version="1.0" encoding="UTF-8" standalone="no"?>
<!DOCTYPE svg PUBLIC "-//W3C//DTD SVG 1.1//EN" "http://www.w3.org/Graphics/SVG/1.1/DTD/svg11.dtd">
<svg width="100%" height="100%" viewBox="0 0 1024 1024" version="1.1" xmlns="http://www.w3.org/2000/svg" xmlns:xlink="http://www.w3.org/1999/xlink" xml:space="preserve" xmlns:serif="http://www.serif.com/" style="fill-rule:evenodd;clip-rule:evenodd;stroke-linejoin:round;stroke-miterlimit:2;">
    <g transform="matrix(0.1,0,0,-0.1,0,1024)">
        <path d="M3833,8732C3812,8710 3783,8642 3716,8454C3667,8317 3621,8193 3614,8178C3600,8151 3596,8150 3529,8150L3459,8150L3307,8283C3120,8448 2968,8567 2915,8591C2862,8615 2815,8615 2791,8591C2753,8553 2750,8509 2765,8245C2773,8108 2780,7986 2780,7974C2780,7959 2755,7938 2688,7895C2626,7856 2557,7799 2484,7725C2386,7628 2368,7604 2327,7520C2281,7424 2250,7309 2250,7230C2250,7169 2231,7135 2136,7025C2015,6886 2012,6871 2083,6720C2219,6430 2416,6281 2794,6180C2854,6164 2905,6149 2907,6147C2909,6144 2902,6107 2891,6064C2786,5646 2800,5227 2930,4845C2980,4697 3021,4603 3081,4499C3108,4451 3139,4386 3150,4355C3205,4194 3261,3751 3305,3129L3312,3033L3236,3006C3037,2936 2920,2814 2889,2646C2866,2521 2901,2426 2985,2385C3079,2338 3169,2328 3475,2327C3629,2327 3776,2330 3802,2334C3847,2341 3850,2343 3855,2378C3878,2541 3911,2617 3994,2707C4063,2781 4140,2834 4232,2870C4269,2885 4302,2899 4305,2901C4307,2904 4303,2940 4294,2981C4259,3147 4292,3286 4387,3370C4412,3392 4434,3409 4436,3407C4438,3406 4434,3384 4429,3360C4423,3334 4420,3261 4423,3190C4428,3058 4446,2978 4494,2874C4508,2843 4520,2817 4520,2815C4520,2814 4494,2807 4463,2800C4377,2781 4276,2743 4212,2705C4116,2649 4074,2605 4033,2522C3999,2453 3995,2439 3995,2366C3995,2270 4015,2227 4075,2193C4150,2151 4220,2145 4639,2145L5032,2145L5054,2232C5098,2408 5209,2512 5415,2572C5486,2592 5515,2595 5670,2594C5787,2594 5896,2586 6000,2572C6359,2524 6645,2518 6860,2555C7026,2584 7217,2656 7327,2732C7351,2748 7370,2758 7370,2755C7370,2752 7359,2727 7345,2701C7278,2568 7045,2455 6753,2414C6582,2390 6233,2399 5965,2434C5584,2483 5399,2461 5276,2351C5218,2298 5190,2231 5190,2144C5190,2060 5206,2015 5256,1960C5358,1848 5559,1779 5891,1744C6110,1721 6654,1729 6855,1758C7124,1797 7254,1825 7445,1887C7825,2010 8071,2210 8153,2463C8179,2546 8181,2692 8156,2775C8093,2987 7908,3152 7620,3254L7545,3281L7544,3453C7539,4056 7335,4706 7002,5175C6806,5451 6597,5652 6310,5839C6028,6024 5735,6146 5330,6250C5140,6298 5070,6331 4990,6410C4867,6531 4836,6606 4820,6816C4786,7272 4687,7585 4503,7823C4466,7871 4452,7903 4424,7998C4361,8212 4219,8465 4064,8639C3953,8762 3889,8788 3833,8732Z" style="fill-rule:nonzero;"/>
    </g>
</svg>
