<svg xmlns="http://www.w3.org/2000/svg" viewBox="0 0 1024 1024" fill="currentColor">
  <path d="M362.87,170.315c-6.506,6.435-15.32,21.796-19.937,34.666c-3.358,9.549-5.037,11.417-13.431,14.946l-9.444,4.152l-17.839-11.832c-14.271-9.549-19.098-11.625-24.764-11.002c-6.086,0.415-7.555,1.661-9.654,7.888c-3.148,8.926-3.358,39.233-0.42,51.896c1.889,8.303 3.148,21.589 7.345,73.692c0.839,11.002 0,18.267-3.358,30.1c-13.431,47.952-15.53,59.992-15.32,93.412c0,46.706 6.926,69.956 35.258,119.36c10.913,19.098 20.567,47.121 25.184,72.862c3.568,20.758 4.197,68.502 0.839,83.448c-1.889,9.756-2.728,10.587-11.543,13.908c-11.962,4.359-18.049,13.285-17.209,24.702c1.049,12.663 7.765,16.399 31.69,17.437c16.999,0.623 20.357,0.208 28.752-4.152c9.024-4.567 9.444-5.397 10.493-15.154c1.259-10.794 4.197-17.852 10.493-24.91c6.716-7.265 7.975-21.173 3.778-35.289c-10.913-34.874-12.172-64.558-3.568-90.299c5.457-17.022 10.074-24.287 21.616-34.874c12.382-11.209 20.357-15.154 34.628-16.399l11.753-1.038l-15.11,7.473c-23.925,12.04-35.048,29.269-39.035,59.576c-3.778,30.307 3.568,66.427 19.727,94.45l6.086,10.587l-11.333,1.245c-25.814,2.491-41.134,19.098-34.838,37.78c3.148,9.549 10.493,13.078 28.542,13.7l14.691,0.415l10.074-10.379c20.777-22.211 44.072-25.118 103.045-13.078c29.171,6.02 37.776,7.058 66.108,7.058c24.974,0.208 35.677-0.623 45.961-3.529c11.543-3.114 16.37-3.321 34.628-1.453c11.543,1.245 21.826,2.906 22.875,3.944c2.309,2.283-16.999,9.756-37.356,14.323c-11.333,2.699-25.604,3.529-60.861,3.529c-44.492,0-47.22-0.415-78.7-7.058c-51.417-11.002-72.614-9.134-88.354,7.265c-7.765,8.096-7.135,23.249 1.259,31.968c17.209,17.852 50.578,27.401 108.501,31.553c90.243,6.227 189.51-13.7 220.15-44.008c16.37-16.191 18.258-37.988 4.617-55.632c-7.975-10.587-27.283-23.664-44.702-30.307c-20.147-7.888-32.11-19.305-36.307-34.874c-1.679-6.02-4.617-20.966-6.506-33.213c-6.086-38.818-23.295-82.618-45.121-114.586c-30.221-44.215-66.947-76.183-127.179-110.227c-24.974-13.908-34.208-22.419-45.331-40.479c-4.617-7.473-11.753-17.645-15.74-22.627c-6.926-8.511-7.345-9.964-6.086-18.682c1.679-12.247 4.197-15.776 23.085-34.044c23.085-22.419 30.011-40.064 23.925-59.369c-5.876-18.267-7.345-20.343-16.37-21.796c-5.876-0.83-11.753-4.152-20.147-11.417c-11.543-9.964-17.419-12.455-39.875-16.191l-10.283-1.661l-5.876-18.267c-3.148-10.172-6.716-19.72-8.185-21.381c-3.568-4.359-9.864-3.529-15.32,1.868Z"/>
</svg>
