<svg xmlns="http://www.w3.org/2000/svg" viewBox="0 0 1024 1024" fill="currentColor">
  <path d="M422.675,397.694c-72.999,7.776-134.255,45.228-159.329,97.597c-16.345,34.119-16.345,65.699 0,87.44c21.424,28.565 66.651,42.53 144.57,44.593c61.891,1.746 107.594-6.348 120.766-21.424c4.285-4.92 4.92-6.506 4.126-12.537c-2.222-19.519-26.502-30.787-61.415-28.406c-8.252,0.635-26.026,2.222-39.515,3.491c-59.193,5.554-96.168,0.793-114.26-14.6c-6.03-5.237-11.426-12.854-11.267-16.028c0.159-0.635 1.746,0.635 3.65,2.856c14.441,16.822 49.671,22.376 103.468,16.663c53.797-5.872 63.319-6.348 77.125-4.602c15.711,2.222 15.552,2.38 20.948-14.6c4.761-15.552 4.761-39.197-0.159-51.575c-7.776-19.678-19.202-31.897-36.341-39.039c-10.156-4.126-7.3-4.92 5.554-1.587c17.615,4.761 31.739,17.139 40.467,35.547c4.761,9.998 5.078,11.585 4.92,28.089c-0.159,15.076-0.793,19.519-5.078,32.532c-2.698,8.252-4.761,15.076-4.602,15.235c0.159,0.159 2.856,1.428 5.872,3.015c9.68,4.92 16.028,10.632 20.789,18.885c5.237,9.363 6.189,20.313 2.063,28.089c-1.27,2.698-2.222,5.078-1.904,5.396c0.952,0.952 32.691,5.554 48.719,7.141c21.424,2.063 47.132,2.063 57.13-0.159c15.393-3.174 19.995-11.585 12.854-23.328c-6.348-10.315-19.519-15.235-47.608-17.774c-35.865-3.015-55.543-13.172-66.175-33.96c-3.333-6.506-3.809-9.204-3.174-17.456c0.952-13.172 6.03-31.421 9.204-33.802c1.428-1.111 3.015-3.65 3.491-5.554c1.428-5.554 25.391-32.056 36.658-40.626c2.539-1.904 4.285-3.65 3.967-3.967c-8.252-4.761-57.13-27.771-66.493-31.263c-35.547-13.172-72.999-18.091-109.023-14.282Z"/>
  <path d="M657.225,411.183c-9.998,5.713-26.026,18.885-30.945,25.232c-2.539,3.491-9.204,8.252-17.298,12.378c-15.393,7.935-26.661,17.932-31.421,27.613c-1.904,3.967-5.237,8.093-7.935,9.363c-5.078,2.698-12.537,11.743-12.537,15.552c0,1.428-0.793,3.015-1.746,3.65c-0.952,0.476-1.428,3.015-1.111,5.554c0.476,2.539 0.159,4.602-0.476,4.602c-1.904,0 0.159,19.202 2.856,26.661c6.506,18.25 19.202,24.598 54.591,27.295c22.693,1.587 32.374,3.65 42.689,8.887c8.411,4.126 19.995,16.028 21.582,21.9c1.27,5.078 5.237,5.396 16.98,0.952c11.267-4.285 25.708-17.456 33.326-30.469c4.443-7.459 8.411-12.061 14.759-16.345c10.315-7.141 32.374-30.152 32.374-33.802c0-1.27-1.111-3.809-2.698-5.396c-3.809-4.126-31.104-12.537-44.434-13.489c-10.632-0.793-11.743-1.27-17.298-6.983l-6.03-6.189l12.219,0c6.665,0 12.219-0.635 12.219-1.27c0-2.38-15.076-15.869-23.011-20.63c-4.285-2.539-11.902-6.03-16.98-7.617l-8.887-2.698l0.159-21.741c0.317-24.28-0.635-26.978-9.046-26.978c-2.698,0-8.093,1.746-11.902,3.967Z"/>
</svg>
