<?xml version="1.0" encoding="UTF-8" standalone="no"?>
<!DOCTYPE svg PUBLIC "-//W3C//DTD SVG 1.1//EN" "http://www.w3.org/Graphics/SVG/1.1/DTD/svg11.dtd">
<svg width="100%" height="100%" viewBox="0 0 100 100" version="1.1" xmlns="http://www.w3.org/2000/svg" xmlns:xlink="http://www.w3.org/1999/xlink" xml:space="preserve" xmlns:serif="http://www.serif.com/" style="fill-rule:evenodd;clip-rule:evenodd;stroke-linejoin:round;stroke-miterlimit:2;">
    <g transform="matrix(1,0,0,1,-2.335825,1.057236)">
        <path d="M52.336,84.945C51.591,84.982 50.813,85 50,85C31,85 13,76 13,58C13,55.39 15.305,42.042 18,38C18,38 8.372,14.071 15,13C23.843,11.571 37,24 37,24C38.262,22.233 45.346,21.61 52.336,21.888C59.326,21.61 66.409,22.233 67.672,24C67.672,24 80.829,11.571 89.672,13C96.299,14.071 86.672,38 86.672,38C89.366,42.042 91.672,55.39 91.672,58C91.672,76 73.672,85 54.672,85C53.859,85 53.081,84.982 52.336,84.945Z"/>
    </g>
</svg>
