<?xml version="1.0" encoding="UTF-8" standalone="no"?><!DOCTYPE svg PUBLIC "-//W3C//DTD SVG 1.1//EN" "http://www.w3.org/Graphics/SVG/1.1/DTD/svg11.dtd"><svg width="100%" height="100%" viewBox="0 0 1024 1024" version="1.1" xmlns="http://www.w3.org/2000/svg" xmlns:xlink="http://www.w3.org/1999/xlink" xml:space="preserve" xmlns:serif="http://www.serif.com/" style="fill-rule:evenodd;clip-rule:evenodd;stroke-linejoin:round;stroke-miterlimit:2;"><path d="M170.234,328.693c-6.998,2.671 -15.279,6.864 -18.374,9.336c-16.788,12.357 -12.187,35.22 6.933,35.82c3.299,0.118 11.466,-2.088 18.217,-4.938c17.409,-7.211 32.421,-9.002 47.524,-6.217c18.753,3.72 40.016,20.15 70.828,54.919c23.568,26.548 46.734,46.603 64.865,55.891c4.32,2.357 6.158,4.243 4.771,5.125c-5.368,3.28 -16.237,17.077 -25.229,31.661c-33.753,54.478 -32.971,53.913 -64.151,53.093c-10.535,-0.25 -21.036,-0.287 -23.379,0.095c-10.862,1.771 -19.791,8.692 -32.512,24.54c-17.603,22.11 -43.2,47.491 -62.193,61.082c-16.006,11.792 -17.932,14.73 -14.448,22.689c2.85,6.75 15.149,9.774 30.483,7.274c16.399,-2.674 23.511,-7.331 43.096,-28.015c18.481,-19.411 29.222,-27.284 39.836,-29.233c4.047,-0.66 22.522,1.357 41.206,4.651c31.27,5.397 35.243,5.624 53.985,2.568c14.695,-2.396 24.71,-5.34 36.294,-10.727c8.707,-4.262 16.309,-7.25 16.804,-6.894c2.972,2.139 -20.884,16.742 -35.588,21.762c-22.52,8.044 -47.994,8.699 -74.436,2.078l-10.491,-2.662l-24.331,18.397c-28.599,21.716 -37.255,31.654 -35.693,41.238c1.632,10.01 9.746,12.841 25.476,8.746c9.658,-2.449 18.687,-7.419 38.744,-21.184c29.234,-20.508 19.254,-17.35 93.152,-28.086c36.31,-5.264 52.649,-10.988 76.723,-26.938l11.628,-7.799l20.379,5.642c49.51,14.011 88.17,16.454 143.609,9.165c38.118,-4.903 39.361,-5.324 37.246,-8.914c-1.412,-1.956 -3.414,-7.533 -4.604,-12.149l-2.454,-8.345l4.702,4.699c17.464,17.268 35.213,24.213 73.085,28.533c35.887,4.207 62.219,11.502 86.547,23.933c25.814,13.501 35.176,14.599 46.734,6.374c9.816,-6.848 9.67,-15.788 -0.363,-27.708c-10.598,-12.702 -26.247,-21.52 -57.182,-31.563c-51.274,-16.784 -56.462,-24.465 -37.726,-55.724c3.104,-5.098 6.366,-14.593 7.311,-20.869c0.945,-6.276 2.85,-13.364 4.42,-15.807c3.817,-6.088 20.34,-13.373 41.181,-18.301c21.233,-5.211 32.609,-11.875 38.501,-22.675c6.644,-12.89 6.346,-18.744 -2.062,-28.743c-4.628,-5.586 -8.82,-13.867 -11.343,-22.638c-3.014,-10.441 -6.081,-15.844 -12.091,-21.86l-8.095,-8.082l1.398,-14.221c1.734,-18.867 -0.064,-21.853 -10.227,-17.136c-4.299,1.794 -11.232,6.204 -15.679,9.771c-11.172,9.255 -13.436,7.438 -18.286,-15.603c-6.525,-30.639 -9.333,-29.088 -48.693,25.867c-29.878,42.039 -35.751,47.588 -63.535,59.552c-10.019,4.257 -22.624,7.405 -42.005,10.565c-31.308,5.104 -42.551,4.532 -100.986,-3.87c-52.654,-7.814 -76.949,-9.319 -111.76,-6.923c-50.175,3.37 -58.249,-0.561 -107.902,-54.341c-44.282,-47.659 -68.284,-62.112 -107.052,-63.881c-18.515,-0.917 -26.395,0.368 -42.808,6.979Z" style="fill-rule:nonzero;"/></svg>